<svg xmlns="http://www.w3.org/2000/svg" direction="ltr" width="736" height="736" viewBox="-1591.3173364092495 1298.852724264285 736 736" stroke-linecap="round" stroke-linejoin="round" data-color-mode="light" class="tl-container tl-theme__force-sRGB tl-theme__light" style="background-color: transparent;"><defs/><g transform="matrix(1, 0, 0, 1, -1591.3173, 1298.8527)" opacity="1"><g data-lovart-layer-name="SVG 2"><g transform="scale(0.5082872928176796, 0.5082872928176796)"><g>
<path xmlns="http://www.w3.org/2000/svg" fill="#000000" d="   M 1448.00 644.86   L 1448.00 665.73   L 1447.66 666.69   A 0.46 0.44 -79.6 0 1 1447.24 666.99   L 1427.43 666.99   A 1.52 1.52 0.0 0 1 1425.91 665.47   L 1425.91 645.82   A 1.05 1.05 0.0 0 0 1424.80 644.77   C 1418.61 645.05 1411.81 644.27 1404.68 644.33   Q 1367.99 644.62 1321.50 644.20   Q 1317.77 644.17 1313.98 644.39   A 1.46 1.46 0.0 0 0 1312.60 645.85   L 1312.60 665.93   A 1.18 1.18 0.0 0 0 1313.78 667.11   L 1333.82 667.11   A 1.83 1.83 0.0 0 1 1335.65 669.03   C 1335.37 675.13 1335.58 681.30 1335.21 687.41   C 1335.04 690.11 1338.31 690.31 1340.00 690.20   Q 1348.19 689.70 1355.80 689.30   Q 1358.35 689.17 1358.28 692.01   Q 1358.03 702.21 1358.35 723.88   C 1358.40 727.28 1359.15 730.36 1358.63 733.68   A 2.25 2.23 -83.8 0 1 1356.29 735.57   L 1345.51 734.94   A 1.53 1.48 -46.0 0 0 1345.21 734.95   Q 1340.06 735.68 1336.80 735.26   A 1.67 1.67 0.0 0 1 1335.33 733.60   L 1335.33 713.78   A 1.19 1.19 0.0 0 0 1334.14 712.59   L 1313.89 712.59   A 1.10 1.09 0.0 0 1 1312.79 711.50   L 1312.79 691.34   A 1.60 1.59 -90.0 0 0 1311.20 689.74   L 1268.85 689.74   A 1.45 1.44 -0.0 0 1 1267.40 688.30   L 1267.40 668.43   A 1.21 1.21 0.0 0 0 1266.19 667.22   L 1246.38 667.22   A 1.64 1.64 0.0 0 1 1244.74 665.58   L 1244.74 645.75   A 1.44 1.44 0.0 0 0 1243.09 644.32   C 1238.55 644.98 1233.83 644.33 1229.77 644.32   Q 1214.03 644.32 1204.75 644.21   Q 1202.35 644.18 1200.35 644.62   A 1.35 1.34 -6.5 0 0 1199.30 645.93   L 1199.30 665.73   A 1.49 1.49 0.0 0 0 1200.51 667.19   Q 1202.72 667.61 1204.00 667.49   Q 1210.64 666.91 1220.03 667.00   A 2.03 2.02 -89.7 0 1 1222.03 669.03   L 1222.03 710.59   A 1.71 1.71 0.0 0 0 1223.74 712.30   L 1243.28 712.30   A 1.34 1.34 0.0 0 1 1244.62 713.62   Q 1244.75 724.99 1244.55 754.99   Q 1244.53 757.87 1246.62 757.93   Q 1258.16 758.28 1287.02 757.51   Q 1287.10 757.51 1288.00 757.42   Q 1289.99 757.22 1290.01 759.26   Q 1290.10 766.35 1290.07 816.86   C 1290.07 819.39 1290.54 822.22 1290.12 824.85   A 1.08 1.07 -85.3 0 1 1289.06 825.75   L 1268.29 825.75   A 0.86 0.86 0.0 0 0 1267.43 826.61   L 1267.43 847.04   A 1.43 1.42 90.0 0 1 1266.01 848.47   L 1246.15 848.47   A 1.40 1.40 0.0 0 0 1244.75 849.87   L 1244.75 869.95   A 1.12 1.11 -90.0 0 1 1243.64 871.07   L 1223.33 871.07   A 1.25 1.24 0.0 0 0 1222.08 872.31   L 1222.08 915.25   A 1.15 1.15 0.0 0 1 1220.93 916.40   Q 1180.13 916.26 1110.75 916.14   Q 1108.59 916.14 1108.65 918.46   Q 1108.92 928.09 1108.88 937.97   A 0.95 0.95 0.0 0 1 1107.93 938.92   L 1042.58 938.92   A 1.60 1.59 -0.0 0 0 1040.98 940.51   L 1040.98 960.12   A 1.30 1.30 0.0 0 1 1039.68 961.42   L 974.64 961.42   A 1.75 1.75 0.0 0 0 972.89 963.15   Q 972.80 969.53 973.20 982.26   Q 973.27 984.41 970.76 984.37   Q 946.78 984.01 916.67 984.06   C 914.07 984.07 910.20 983.86 906.75 984.17   A 1.85 1.84 87.5 0 0 905.07 986.01   L 905.07 1005.72   A 1.09 1.08 90.0 0 1 903.99 1006.81   L 770.59 1006.81   A 1.37 1.36 0.0 0 0 769.22 1008.17   L 769.22 1028.21   A 1.22 1.22 0.0 0 1 768.00 1029.43   L 657.53 1029.43   A 1.53 1.53 0.0 0 0 656.00 1030.96   L 656.00 1050.72   A 1.42 1.42 0.0 0 1 654.58 1052.14   L 407.91 1052.14   A 0.96 0.95 -0.0 0 1 406.95 1051.19   L 406.95 1030.72   A 1.16 1.15 90.0 0 0 405.80 1029.56   L 317.67 1029.56   A 1.12 1.12 0.0 0 1 316.55 1028.44   L 316.55 1008.36   A 1.43 1.43 0.0 0 0 315.12 1006.93   L 249.51 1006.93   A 1.00 1.00 0.0 0 1 248.51 1005.93   L 248.51 985.40   A 1.19 1.19 0.0 0 0 247.32 984.21   L 204.52 984.21   A 1.03 1.02 -90.0 0 1 203.50 983.18   L 203.50 962.46   A 0.92 0.91 0.0 0 0 202.58 961.55   L 159.13 961.55   A 1.36 1.35 -87.8 0 1 157.78 960.09   Q 158.49 951.04 157.67 942.01   Q 157.59 941.05 158.39 938.96   A 0.16 0.16 0.0 0 1 158.54 938.86   L 224.38 938.86   A 1.44 1.43 -0.0 0 1 225.82 940.29   L 225.82 960.30   A 1.50 1.49 89.6 0 0 227.33 961.80   Q 265.55 961.44 268.53 961.36   Q 271.27 961.30 271.17 964.20   Q 270.97 970.47 270.77 982.57   A 1.57 1.57 0.0 0 0 272.34 984.17   L 315.36 984.17   A 1.23 1.23 0.0 0 1 316.59 985.40   L 316.59 1005.26   A 1.47 1.47 0.0 0 0 317.73 1006.69   Q 319.02 1006.98 321.25 1006.98   Q 410.16 1006.75 427.28 1006.67   C 430.05 1006.66 429.70 1008.84 429.63 1010.85   Q 429.30 1019.81 429.40 1028.00   A 1.52 1.52 0.0 0 0 430.92 1029.50   L 655.12 1029.50   A 1.11 1.10 88.8 0 0 656.22 1028.34   Q 656.12 1025.88 655.81 1009.30   Q 655.77 1006.82 657.99 1006.83   Q 669.76 1006.87 762.75 1006.97   Q 763.00 1006.97 767.90 1007.25   A 1.32 1.32 0.0 0 0 769.30 1005.93   L 769.30 985.57   A 1.41 1.40 0.2 0 1 770.72 984.17   Q 803.09 984.50 840.68 984.26   C 857.69 984.15 879.06 984.50 899.00 984.06   Q 900.03 984.04 903.47 984.46   A 1.69 1.69 0.0 0 0 905.37 982.73   Q 905.08 973.58 905.04 963.99   Q 905.04 961.37 907.49 961.39   Q 937.09 961.65 967.00 961.41   Q 968.43 961.40 972.12 961.69   A 0.74 0.73 2.5 0 0 972.92 960.96   L 972.92 940.15   A 1.16 1.16 0.0 0 1 973.85 939.01   Q 975.62 938.64 976.75 938.66   Q 994.25 939.02 1011.00 938.87   Q 1013.51 938.85 1016.41 939.13   A 1.65 1.65 0.0 0 0 1018.22 937.49   L 1018.22 917.98   A 1.62 1.62 0.0 0 1 1019.84 916.36   L 1062.03 916.36   A 1.27 1.26 0.0 0 0 1063.30 915.10   L 1063.30 894.83   A 1.18 1.18 0.0 0 1 1064.48 893.65   L 1107.51 893.65   A 1.26 1.25 90.0 0 0 1108.76 892.39   L 1108.76 872.12   A 1.14 1.14 0.0 0 1 1109.90 870.98   L 1221.28 870.98   A 1.17 1.16 86.7 0 0 1222.43 869.68   Q 1222.08 866.62 1222.00 862.50   Q 1221.77 851.56 1221.84 828.75   Q 1221.85 827.93 1221.85 827.62   A 1.65 1.64 0.7 0 1 1223.50 826.02   L 1243.38 826.02   A 1.55 1.54 -0.0 0 0 1244.93 824.48   L 1244.93 803.84   A 0.98 0.98 0.0 0 0 1243.95 802.86   L 1178.75 802.86   A 1.76 1.76 0.0 0 0 1176.99 804.65   Q 1177.12 814.00 1177.38 823.34   Q 1177.46 826.23 1174.75 826.04   Q 1161.09 825.08 1133.50 825.62   Q 1131.36 825.66 1131.36 827.77   Q 1131.36 837.27 1131.91 846.03   Q 1132.06 848.48 1129.25 848.42   Q 1113.56 848.13 1068.34 848.20   C 1065.83 848.20 1063.63 847.87 1063.66 850.73   Q 1063.70 855.59 1064.11 868.79   Q 1064.18 871.29 1061.26 871.17   Q 1040.80 870.31 1020.16 870.98   A 1.63 1.63 0.0 0 0 1018.58 872.61   L 1018.58 891.84   A 1.58 1.58 0.0 0 1 1017.00 893.42   L 951.83 893.42   A 1.51 1.51 0.0 0 0 950.32 894.92   Q 950.29 903.69 950.74 912.87   Q 950.86 915.19 950.45 915.68   Q 949.89 916.35 947.72 916.42   C 941.21 916.61 931.72 915.99 922.10 916.06   C 894.24 916.26 866.35 915.94 838.44 916.15   A 1.33 1.32 89.8 0 0 837.13 917.48   L 837.13 937.94   A 1.05 1.04 -0.0 0 1 836.08 938.98   L 408.25 938.98   A 1.49 1.48 -90.0 0 1 406.77 937.49   L 406.77 917.40   A 1.07 1.07 0.0 0 0 405.70 916.33   L 295.23 916.33   A 1.38 1.38 0.0 0 1 293.85 914.95   L 293.85 894.36   A 0.81 0.80 -0.0 0 0 293.04 893.56   L 227.08 893.56   A 1.16 1.16 0.0 0 1 225.92 892.40   L 225.92 872.10   A 1.41 1.41 0.0 0 0 224.50 870.69   C 192.95 870.97 151.37 870.90 93.73 870.81   Q 91.62 870.80 91.24 870.94   Q 90.16 871.34 90.17 873.01   Q 90.19 878.42 90.14 891.76   A 1.85 1.84 -89.8 0 1 88.30 893.60   L 68.66 893.60   A 1.41 1.41 0.0 0 1 67.25 892.19   L 67.25 849.64   A 1.54 1.53 6.8 0 1 69.15 848.15   L 70.91 848.57   A 2.39 2.38 -38.8 0 0 71.56 848.64   L 88.73 848.34   A 1.47 1.46 -0.6 0 0 90.17 846.88   L 90.17 826.39   A 0.60 0.60 0.0 0 0 89.58 825.79   C 83.93 825.66 80.59 826.13 75.42 825.57   Q 72.37 825.24 69.04 825.96   A 1.51 1.50 84.0 0 1 67.22 824.48   L 67.22 804.98   A 1.83 1.83 0.0 0 1 69.05 803.15   L 88.14 803.15   A 1.89 1.89 0.0 0 0 90.03 801.26   L 90.03 782.24   A 1.89 1.88 -89.7 0 1 91.93 780.35   Q 99.92 780.44 109.74 780.57   C 112.05 780.60 112.78 779.84 112.78 777.49   Q 112.80 749.93 112.63 736.38   A 1.27 1.26 89.8 0 1 113.89 735.10   L 134.37 735.10   A 1.14 1.13 -0.0 0 0 135.51 733.97   L 135.51 691.35   A 1.27 1.27 0.0 0 1 136.78 690.08   L 156.23 690.08   A 1.81 1.80 90.0 0 0 158.03 688.27   L 158.03 668.92   A 1.58 1.57 -0.0 0 1 159.61 667.35   L 178.62 667.35   A 2.15 2.15 0.0 0 0 180.77 665.20   L 180.77 646.11   A 1.35 1.35 0.0 0 1 182.12 644.76   L 202.19 644.76   A 1.26 1.26 0.0 0 0 203.45 643.50   L 203.45 623.80   A 1.43 1.43 0.0 0 1 204.88 622.37   L 224.84 622.28   A 1.03 1.03 0.0 0 0 225.73 621.77   Q 226.31 620.90 226.23 618.01   Q 225.83 603.91 225.90 600.99   A 1.55 1.54 0.8 0 1 227.46 599.48   Q 231.74 599.50 244.48 599.39   C 246.82 599.37 248.50 599.76 248.58 597.03   Q 248.59 596.76 248.71 578.21   A 1.25 1.25 0.0 0 0 247.50 576.96   Q 224.87 576.25 204.61 576.95   A 1.16 1.16 0.0 0 0 203.49 578.11   L 203.49 598.08   A 1.13 1.13 0.0 0 1 202.36 599.21   L 182.11 599.21   A 1.27 1.26 90.0 0 0 180.85 600.48   L 180.85 620.69   A 1.35 1.34 -0.0 0 1 179.50 622.03   L 159.60 622.03   A 1.45 1.44 90.0 0 0 158.16 623.48   L 158.16 642.85   A 1.75 1.75 0.0 0 1 156.55 644.59   Q 153.20 644.87 149.16 644.52   A 14.91 14.25 -43.7 0 0 146.63 644.52   Q 141.45 644.97 136.90 644.67   A 1.25 1.24 1.9 0 0 135.57 645.91   L 135.57 666.03   A 1.19 1.18 -90.0 0 1 134.39 667.22   L 113.91 667.22   A 1.10 1.10 0.0 0 0 112.81 668.32   L 112.81 710.82   A 1.69 1.69 0.0 0 1 111.12 712.51   L 91.56 712.51   A 1.37 1.37 0.0 0 0 90.19 713.88   L 90.19 756.39   A 1.50 1.50 0.0 0 1 88.69 757.89   L 69.17 757.89   A 1.47 1.47 0.0 0 0 67.70 759.36   L 67.70 778.98   A 1.49 1.48 -90.0 0 1 66.22 780.47   L 46.13 780.47   A 1.28 1.27 -0.0 0 0 44.85 781.74   L 44.85 847.20   A 1.13 1.12 90.0 0 1 43.73 848.33   L 1.09 848.33   A 0.91 0.90 -13.3 0 1 0.28 847.83   L 0.00 847.28   L 0.00 781.84   L 0.22 781.19   A 0.73 0.73 0.0 0 1 0.91 780.70   Q 10.35 780.64 19.76 780.65   Q 22.29 780.65 22.31 778.00   Q 22.38 769.48 22.20 713.85   A 1.36 1.36 0.0 0 1 23.59 712.48   Q 34.35 712.72 42.27 712.58   Q 45.21 712.53 45.11 709.26   Q 44.72 696.44 44.86 691.19   A 1.18 1.18 0.0 0 1 46.04 690.04   L 66.39 690.04   A 1.23 1.22 -0.0 0 0 67.62 688.82   L 67.62 646.07   A 1.16 1.15 -90.0 0 1 68.77 644.91   L 88.18 644.91   A 1.98 1.98 0.0 0 0 90.16 642.93   L 90.16 623.85   A 1.51 1.51 0.0 0 1 91.67 622.34   L 110.79 622.34   A 2.07 2.06 -90.0 0 0 112.85 620.27   L 112.85 578.13   A 1.06 1.05 -0.0 0 1 113.91 577.08   L 134.16 577.08   A 1.26 1.26 0.0 0 0 135.42 575.82   L 135.42 555.77   A 1.27 1.26 0.0 0 1 136.69 554.51   Q 155.50 554.63 177.78 554.37   C 180.48 554.34 180.99 553.03 180.92 550.50   Q 180.64 540.84 180.67 533.04   A 1.24 1.24 0.0 0 1 181.91 531.81   L 202.18 531.81   A 1.21 1.21 0.0 0 0 203.39 530.60   L 203.39 510.39   A 1.01 1.01 0.0 0 1 204.39 509.38   L 246.89 509.13   A 1.23 1.20 -60.5 0 0 247.54 508.94   Q 248.69 508.24 248.69 506.02   Q 248.68 497.82 248.39 487.87   A 1.30 1.29 89.1 0 1 249.68 486.53   L 291.89 486.53   A 1.85 1.85 0.0 0 0 293.74 484.68   L 293.74 465.33   A 1.46 1.45 0.4 0 1 295.22 463.88   Q 316.49 464.22 336.75 463.84   Q 339.58 463.78 339.30 461.77   Q 339.22 461.21 338.99 442.50   A 1.04 1.04 0.0 0 1 340.03 441.45   L 450.46 441.45   A 1.89 1.88 0.0 0 0 452.35 439.57   L 452.35 420.38   A 1.59 1.59 0.0 0 1 453.94 418.79   L 541.00 418.79   A 1.94 1.94 0.0 0 0 542.94 416.85   L 542.94 374.79   A 1.43 1.43 0.0 0 1 544.37 373.36   L 564.00 373.36   A 1.53 1.53 0.0 0 1 565.53 374.89   L 565.53 394.78   A 1.49 1.49 0.0 0 0 567.02 396.27   L 836.00 396.27   A 1.10 1.10 0.0 0 1 837.10 397.40   Q 836.95 402.99 836.89 413.58   C 836.88 416.38 836.39 418.73 839.71 418.77   Q 842.66 418.81 845.50 418.81   Q 888.03 418.78 926.18 418.55   A 1.38 1.37 89.8 0 1 927.56 419.93   L 927.56 440.02   A 1.27 1.27 0.0 0 0 928.83 441.29   L 994.21 441.29   A 1.27 1.27 0.0 0 1 995.48 442.57   Q 995.39 457.21 995.33 461.41   Q 995.31 463.80 997.71 463.81   Q 1035.43 464.01 1062.11 463.68   A 1.54 1.53 -89.8 0 1 1063.66 465.25   Q 1063.49 472.65 1063.43 483.05   C 1063.41 486.86 1065.73 486.38 1068.93 486.39   Q 1086.92 486.45 1107.26 486.12   A 1.70 1.69 0.2 0 1 1108.99 487.85   Q 1108.63 505.20 1108.63 506.27   Q 1108.63 508.99 1111.25 508.98   Q 1129.49 508.96 1150.06 508.67   C 1153.34 508.62 1154.52 508.13 1154.37 512.17   Q 1154.11 519.22 1154.07 528.04   Q 1154.05 531.44 1157.17 531.45   Q 1212.42 531.75 1266.06 531.34   A 1.24 1.24 0.0 0 1 1267.31 532.58   L 1267.31 552.25   A 1.48 1.48 0.0 0 0 1268.30 553.65   Q 1269.69 554.13 1272.50 554.14   Q 1285.95 554.17 1294.24 554.10   C 1300.37 554.06 1305.77 553.40 1311.25 553.92   A 1.44 1.44 0.0 0 1 1312.55 555.35   L 1312.55 575.35   A 1.30 1.30 0.0 0 0 1313.85 576.65   L 1379.40 576.65   A 1.19 1.18 90.0 0 1 1380.58 577.84   L 1380.58 620.00   A 2.09 2.08 -0.0 0 0 1382.67 622.08   Q 1406.57 622.09 1423.74 621.61   Q 1426.20 621.54 1426.18 623.78   Q 1426.06 637.74 1426.09 643.65   A 1.20 1.20 0.0 0 0 1427.23 644.84   C 1430.80 645.03 1434.05 644.37 1437.91 644.47   Q 1442.96 644.59 1448.00 644.86   Z   M 293.88 555.44   A 1.52 1.52 0.0 0 0 292.36 553.92   L 250.16 553.92   A 1.52 1.52 0.0 0 0 248.64 555.44   L 248.64 575.40   A 1.52 1.52 0.0 0 0 250.16 576.92   L 292.36 576.92   A 1.52 1.52 0.0 0 0 293.88 575.40   L 293.88 555.44   Z   M 1176.8928 759.4511   A 1.83 1.83 0.0 0 0 1175.0501 757.6340   L 1156.0506 757.7666   A 1.83 1.83 0.0 0 0 1154.2334 759.6093   L 1154.3672 778.7689   A 1.83 1.83 0.0 0 0 1156.2099 780.5860   L 1175.2094 780.4534   A 1.83 1.83 0.0 0 0 1177.0266 778.6107   L 1176.8928 759.4511   Z   M 1154.4873 781.9097   A 1.62 1.62 0.0 0 0 1152.8701 780.2869   L 1110.6302 780.2132   A 1.62 1.62 0.0 0 0 1109.0074 781.8303   L 1108.9727 801.6903   A 1.62 1.62 0.0 0 0 1110.5899 803.3131   L 1152.8298 803.3868   A 1.62 1.62 0.0 0 0 1154.4526 801.7697   L 1154.4873 781.9097   Z   M 1108.86 804.83   A 2.08 2.08 0.0 0 0 1106.78 802.75   L 1043.10 802.75   A 2.08 2.08 0.0 0 0 1041.02 804.83   L 1041.02 823.91   A 2.08 2.08 0.0 0 0 1043.10 825.99   L 1106.78 825.99   A 2.08 2.08 0.0 0 0 1108.86 823.91   L 1108.86 804.83   Z   M 248.79 826.81   A 1.25 1.25 0.0 0 0 247.54 825.56   L 181.82 825.56   A 1.25 1.25 0.0 0 0 180.57 826.81   L 180.57 847.27   A 1.25 1.25 0.0 0 0 181.82 848.52   L 247.54 848.52   A 1.25 1.25 0.0 0 0 248.79 847.27   L 248.79 826.81   Z   M 1040.9568 827.4995   A 1.87 1.87 0.0 0 0 1039.0900 825.6263   L 997.5701 825.5538   A 1.87 1.87 0.0 0 0 995.6968 827.4205   L 995.6632 846.6805   A 1.87 1.87 0.0 0 0 997.5300 848.5537   L 1039.0499 848.6262   A 1.87 1.87 0.0 0 0 1040.9232 846.7595   L 1040.9568 827.4995   Z   M 316.63 849.38   A 1.10 1.10 0.0 0 0 315.53 848.28   L 249.63 848.28   A 1.10 1.10 0.0 0 0 248.53 849.38   L 248.53 870.10   A 1.10 1.10 0.0 0 0 249.63 871.20   L 315.53 871.20   A 1.10 1.10 0.0 0 0 316.63 870.10   L 316.63 849.38   Z   M 995.7170 849.9993   A 1.72 1.72 0.0 0 0 994.0000 848.2763   L 929.5201 848.1637   A 1.72 1.72 0.0 0 0 927.7971 849.8807   L 927.7630 869.4407   A 1.72 1.72 0.0 0 0 929.4800 871.1637   L 993.9599 871.2763   A 1.72 1.72 0.0 0 0 995.6829 869.5593   L 995.7170 849.9993   Z   M 452.43 872.01   A 1.18 1.18 0.0 0 0 451.25 870.83   L 317.59 870.83   A 1.18 1.18 0.0 0 0 316.41 872.01   L 316.41 892.53   A 1.18 1.18 0.0 0 0 317.59 893.71   L 451.25 893.71   A 1.18 1.18 0.0 0 0 452.43 892.53   L 452.43 872.01   Z   M 452.19 915.54   A 0.87 0.87 0.0 0 0 453.06 916.41   L 812.75 916.41   A 1.66 1.66 0.0 0 0 814.41 914.75   L 814.41 895.23   A 1.55 1.54 -0.0 0 1 815.96 893.69   L 926.20 893.69   A 1.47 1.47 0.0 0 0 927.67 892.22   L 927.67 872.47   A 1.18 1.18 0.0 0 0 926.53 871.29   C 920.18 871.10 915.37 870.69 909.47 870.68   Q 832.83 870.58 794.22 870.91   Q 791.87 870.93 791.89 873.48   Q 791.94 880.68 792.11 891.87   A 1.56 1.56 0.0 0 1 790.55 893.45   L 453.83 893.45   A 1.64 1.64 0.0 0 0 452.19 895.09   L 452.19 915.54   Z"/>
<path xmlns="http://www.w3.org/2000/svg" fill="#000000" d="   M 1380.74 893.46   A 0.23 0.22 -90.0 0 1 1380.52 893.69   L 1290.99 893.69   A 1.34 1.34 0.0 0 1 1289.65 892.35   L 1289.65 872.24   A 1.20 1.19 -90.0 0 1 1290.84 871.04   L 1334.31 871.04   A 0.97 0.96 -0.0 0 0 1335.28 870.08   L 1335.28 826.82   A 1.25 1.25 0.0 0 1 1336.53 825.57   L 1357.24 825.57   A 0.66 0.66 0.0 0 1 1357.88 826.06   Q 1358.34 827.86 1358.32 830.75   Q 1358.29 838.50 1358.05 846.18   A 1.93 1.93 0.0 0 0 1359.74 848.16   Q 1363.00 848.58 1365.00 848.48   Q 1371.83 848.16 1379.19 848.03   A 1.53 1.53 0.0 0 1 1380.74 849.56   L 1380.74 893.46   Z"/>
<rect xmlns="http://www.w3.org/2000/svg" fill="#000000" x="-11.46" y="-11.52" transform="translate(101.38,927.60) rotate(0.1)" width="22.92" height="23.04" rx="1.37"/>
</g></g></g></g></svg>