<svg xmlns="http://www.w3.org/2000/svg" direction="ltr" width="736" height="736" viewBox="-2492.2952695031863 1284.687528836392 736 736" stroke-linecap="round" stroke-linejoin="round" data-color-mode="light" class="tl-container tl-theme__force-sRGB tl-theme__light" style="background-color: transparent;"><defs/><g transform="matrix(1, 0, 0, 1, -2492.2953, 1284.6875)" opacity="1"><g data-lovart-layer-name="SVG 1"><g transform="scale(1, 1)"><g>
<path xmlns="http://www.w3.org/2000/svg" fill="#000000" d="   M 0.00 430.47   L 0.00 397.24   L 10.07 396.87   A 1.64 1.64 0.0 0 0 11.65 395.23   L 11.65 363.64   A 1.41 1.41 0.0 0 1 13.06 362.23   L 21.82 362.23   A 1.21 1.21 0.0 0 0 23.03 361.02   L 23.03 351.81   A 0.89 0.88 0.0 0 1 23.92 350.93   L 33.15 350.93   A 1.55 1.55 0.0 0 0 34.70 349.38   L 34.70 328.60   A 0.54 0.53 -90.0 0 1 35.23 328.06   L 44.46 328.06   A 1.59 1.59 0.0 0 0 46.05 326.47   L 46.05 317.58   A 1.19 1.19 0.0 0 1 47.24 316.39   L 56.58 316.39   A 1.10 1.09 -90.0 0 0 57.67 315.29   L 57.67 294.57   A 1.19 1.19 0.0 0 1 58.86 293.38   L 67.99 293.38   A 1.05 1.05 0.0 0 0 69.04 292.33   L 69.04 282.85   A 0.70 0.69 0.0 0 1 69.74 282.16   L 90.67 282.16   A 1.38 1.37 -90.0 0 0 92.04 280.78   L 92.04 271.59   A 1.14 1.13 0.0 0 1 93.18 270.46   L 102.35 270.46   A 1.32 1.32 0.0 0 0 103.67 269.14   L 103.67 259.55   A 0.44 0.43 -0.0 0 1 104.11 259.12   L 124.97 259.12   A 1.64 1.64 0.0 0 0 126.61 257.48   L 126.61 248.75   A 1.37 1.36 -0.0 0 1 127.98 247.39   L 148.34 247.39   A 1.26 1.26 0.0 0 0 149.60 246.13   L 149.60 236.39   A 0.42 0.41 -0.0 0 1 150.02 235.98   L 171.12 235.98   A 1.45 1.45 0.0 0 0 172.57 234.53   L 172.57 225.82   A 1.29 1.29 0.0 0 1 173.86 224.53   L 228.75 224.53   A 1.21 1.20 -90.0 0 0 229.95 223.32   L 229.95 213.88   A 0.75 0.75 0.0 0 1 230.70 213.13   L 274.73 213.13   A 1.20 1.20 0.0 0 0 275.93 211.93   L 275.93 190.78   A 0.82 0.81 0.0 0 1 276.75 189.97   L 286.56 189.97   A 0.85 0.85 0.0 0 1 287.41 190.79   Q 287.53 194.31 287.47 198.58   Q 287.44 200.94 288.06 201.37   C 288.84 201.90 290.44 201.39 291.83 201.39   Q 358.82 201.49 424.10 201.34   A 1.26 1.26 0.0 0 1 425.36 202.60   L 425.36 211.94   A 1.13 1.12 0.0 0 0 426.49 213.06   L 470.87 213.06   A 0.50 0.50 0.0 0 1 471.37 213.56   L 471.37 222.96   A 1.41 1.40 0.0 0 0 472.78 224.36   L 504.64 224.36   A 1.25 1.24 -90.0 0 1 505.88 225.61   L 505.88 234.36   A 1.56 1.56 0.0 0 0 507.44 235.92   L 539.81 235.92   A 0.58 0.58 0.0 0 1 540.39 236.50   L 540.39 245.96   A 1.24 1.24 0.0 0 0 541.63 247.20   L 562.39 247.20   A 0.99 0.99 0.0 0 1 563.38 248.19   L 563.38 257.69   A 1.23 1.22 -0.0 0 0 564.61 258.91   L 585.77 258.91   A 0.61 0.61 0.0 0 1 586.38 259.52   L 586.38 269.15   A 1.02 1.02 0.0 0 0 587.40 270.17   L 642.86 270.17   A 1.13 1.13 0.0 0 1 643.99 271.30   L 643.99 280.46   A 1.44 1.44 0.0 0 0 645.43 281.90   L 665.95 281.90   A 1.00 1.00 0.0 0 1 666.95 282.90   L 666.95 292.32   A 0.79 0.79 0.0 0 0 667.74 293.11   L 700.19 293.11   A 1.18 1.18 0.0 0 1 701.37 294.29   L 701.37 314.79   A 1.25 1.25 0.0 0 0 702.62 316.04   L 723.24 316.04   A 1.36 1.35 90.0 0 1 724.59 317.40   L 724.59 327.06   A 0.43 0.42 -90.0 0 1 724.17 327.49   L 668.11 327.49   A 1.15 1.15 0.0 0 0 666.96 328.64   L 666.96 338.26   A 0.81 0.81 0.0 0 0 667.77 339.07   L 676.97 339.07   A 1.52 1.51 90.0 0 1 678.48 340.59   L 678.48 349.56   A 1.25 1.25 0.0 0 0 679.73 350.81   L 688.95 350.81   A 1.14 1.14 0.0 0 1 690.09 351.95   L 690.09 372.62   A 1.15 1.14 -0.0 0 1 688.94 373.76   L 679.72 373.76   A 1.27 1.27 0.0 0 1 678.45 372.49   L 678.45 363.14   A 1.17 1.17 0.0 0 0 677.28 361.97   L 668.14 361.97   A 1.14 1.13 -0.0 0 1 667.00 360.84   L 667.00 350.87   A 0.36 0.35 90.0 0 0 666.65 350.51   L 644.92 350.51   A 0.91 0.91 0.0 0 1 644.01 349.60   L 644.01 339.80   A 0.76 0.76 0.0 0 0 643.25 339.04   L 633.51 339.04   A 1.05 1.04 -0.0 0 1 632.46 338.00   L 632.46 328.19   A 0.68 0.68 0.0 0 0 631.78 327.51   L 610.88 327.51   A 1.53 1.53 0.0 0 0 609.35 329.04   L 609.35 338.02   A 1.10 1.09 -0.0 0 0 610.45 339.11   L 619.88 339.11   A 1.23 1.23 0.0 0 1 621.11 340.34   L 621.11 360.65   A 1.49 1.48 90.0 0 0 622.59 362.14   L 631.36 362.14   A 0.98 0.97 0.0 0 1 632.34 363.11   L 632.34 383.84   A 1.29 1.28 90.0 0 0 633.62 385.13   L 653.98 385.13   A 1.53 1.53 0.0 0 1 655.51 386.66   L 655.51 418.66   A 0.77 0.77 0.0 0 1 654.74 419.43   L 645.32 419.43   A 1.27 1.27 0.0 0 0 644.05 420.70   L 644.05 429.95   A 0.98 0.97 0.0 0 1 643.07 430.92   L 633.82 430.92   A 1.39 1.38 90.0 0 0 632.44 432.31   L 632.44 441.78   A 0.82 0.82 0.0 0 1 631.62 442.60   L 621.90 442.60   A 0.93 0.93 0.0 0 1 620.97 441.67   L 620.97 421.16   A 1.26 1.25 90.0 0 1 622.22 419.90   L 631.12 419.90   A 1.42 1.41 0.0 0 0 632.54 418.49   L 632.54 408.63   A 0.85 0.84 -0.0 0 0 631.69 407.79   L 610.35 407.79   A 0.81 0.81 0.0 0 1 609.54 406.98   L 609.54 385.93   A 0.96 0.96 0.0 0 0 608.58 384.97   L 599.08 384.97   A 1.11 1.11 0.0 0 1 597.97 383.86   L 597.97 374.23   A 0.60 0.60 0.0 0 0 597.37 373.63   L 587.55 373.63   A 1.02 1.01 -90.0 0 1 586.54 372.61   L 586.54 363.05   A 1.15 1.14 -0.0 0 0 585.39 361.91   L 564.44 361.91   A 0.89 0.89 0.0 0 1 563.55 361.02   L 563.55 351.37   A 0.84 0.84 0.0 0 0 562.71 350.53   L 552.95 350.53   A 0.83 0.83 0.0 0 1 552.12 349.70   L 552.12 339.97   A 0.93 0.93 0.0 0 0 551.19 339.04   L 541.43 339.04   A 0.89 0.89 0.0 0 1 540.54 338.15   L 540.54 328.44   A 0.90 0.90 0.0 0 0 539.64 327.54   L 506.80 327.54   A 0.72 0.72 0.0 0 1 506.08 326.82   L 506.08 316.80   A 0.72 0.72 0.0 0 0 505.36 316.08   L 495.43 316.08   A 0.92 0.92 0.0 0 1 494.51 315.16   L 494.51 305.45   A 0.70 0.70 0.0 0 0 493.81 304.75   L 472.56 304.75   A 1.07 1.06 0.0 0 1 471.49 303.69   L 471.49 293.68   A 0.74 0.74 0.0 0 0 470.75 292.94   L 449.93 292.94   A 1.61 1.60 0.0 0 0 448.32 294.54   L 448.32 314.94   A 1.18 1.17 0.0 0 0 449.50 316.11   L 458.84 316.11   A 1.10 1.09 90.0 0 1 459.93 317.21   L 459.93 349.54   A 1.12 1.12 0.0 0 1 458.81 350.66   L 449.47 350.66   A 1.16 1.16 0.0 0 0 448.31 351.82   L 448.31 384.38   A 0.61 0.60 -90.0 0 1 447.71 384.99   L 438.01 384.99   A 1.12 1.12 0.0 0 0 436.89 386.11   L 436.89 395.63   A 1.00 1.00 0.0 0 1 435.89 396.63   L 426.23 396.63   A 0.95 0.94 0.0 0 0 425.28 397.57   L 425.28 418.39   A 1.18 1.18 0.0 0 1 424.10 419.57   L 414.99 419.57   A 1.11 1.11 0.0 0 0 413.88 420.68   L 413.88 429.92   A 1.05 1.05 0.0 0 1 412.83 430.97   L 403.80 430.97   A 1.38 1.38 0.0 0 0 402.42 432.35   L 402.42 441.43   A 1.14 1.14 0.0 0 1 401.28 442.57   L 391.94 442.57   A 1.07 1.07 0.0 0 0 390.87 443.64   L 390.87 453.01   A 0.81 0.80 -0.0 0 1 390.06 453.81   L 369.30 453.81   A 1.42 1.42 0.0 0 0 367.88 455.23   L 367.88 464.76   A 0.76 0.76 0.0 0 1 367.12 465.52   L 276.69 465.52   A 0.58 0.58 0.0 0 1 276.11 464.94   L 276.11 454.53   A 0.67 0.67 0.0 0 0 275.44 453.86   L 253.80 453.86   A 0.65 0.65 0.0 0 1 253.15 453.21   L 253.15 443.44   A 0.91 0.91 0.0 0 0 252.24 442.53   L 242.25 442.53   A 0.62 0.62 0.0 0 1 241.63 441.91   L 241.63 431.55   A 0.63 0.62 0.0 0 0 241.00 430.93   L 230.88 430.93   A 0.67 0.67 0.0 0 1 230.21 430.26   L 230.21 420.50   A 0.96 0.96 0.0 0 0 229.25 419.54   L 219.26 419.54   A 0.63 0.63 0.0 0 1 218.63 418.91   L 218.63 397.63   A 0.90 0.89 0.0 0 0 217.73 396.74   L 207.83 396.74   A 0.96 0.96 0.0 0 1 206.87 395.78   L 206.87 386.58   A 1.27 1.27 0.0 0 1 208.14 385.31   L 228.91 385.31   A 1.13 1.12 0.0 0 0 230.04 384.19   L 230.04 374.96   A 1.12 1.11 -90.0 0 1 231.15 373.84   L 240.42 373.84   A 1.24 1.24 0.0 0 0 241.66 372.60   L 241.66 328.51   A 1.06 1.06 0.0 0 0 240.60 327.45   L 231.33 327.45   A 1.30 1.30 0.0 0 0 230.03 328.75   L 230.03 337.91   A 1.19 1.18 -90.0 0 1 228.85 339.10   L 208.49 339.10   A 1.39 1.39 0.0 0 0 207.10 340.49   L 207.10 349.84   A 0.97 0.97 0.0 0 1 206.13 350.81   L 196.24 350.81   A 0.84 0.84 0.0 0 1 195.40 349.97   L 195.40 340.40   A 1.29 1.29 0.0 0 1 196.69 339.11   L 206.19 339.11   A 0.99 0.99 0.0 0 0 207.18 338.12   L 207.18 316.88   A 0.90 0.90 0.0 0 0 206.28 315.98   L 196.92 315.98   A 1.40 1.40 0.0 0 0 195.52 317.38   L 195.52 326.37   A 1.30 1.30 0.0 0 1 194.22 327.67   L 185.04 327.67   A 1.02 1.02 0.0 0 0 184.02 328.69   L 184.02 337.95   A 1.15 1.15 0.0 0 1 182.87 339.10   L 173.85 339.10   A 1.31 1.31 0.0 0 0 172.54 340.41   L 172.54 349.26   A 1.32 1.32 0.0 0 1 171.22 350.58   L 161.75 350.58   A 0.84 0.83 -90.0 0 0 160.92 351.42   L 160.92 372.69   A 1.02 1.01 -0.0 0 1 159.90 373.70   L 150.06 373.70   A 0.52 0.52 0.0 0 0 149.54 374.22   L 149.54 383.56   A 1.47 1.47 0.0 0 1 148.07 385.03   L 139.27 385.03   A 1.39 1.39 0.0 0 0 137.88 386.42   L 137.88 406.83   A 1.13 1.13 0.0 0 1 136.75 407.96   L 127.26 407.96   A 0.77 0.77 0.0 0 0 126.49 408.73   L 126.49 429.79   A 1.04 1.03 -0.0 0 1 125.45 430.82   L 81.62 430.82   A 1.09 1.09 0.0 0 0 80.53 431.91   L 80.53 441.52   A 0.91 0.91 0.0 0 1 79.62 442.43   L 47.09 442.43   A 1.02 1.02 0.0 0 0 46.07 443.45   L 46.07 452.76   A 1.09 1.08 90.0 0 1 44.99 453.85   L 35.28 453.85   A 0.87 0.87 0.0 0 1 34.41 452.98   L 34.41 432.05   A 0.95 0.95 0.0 0 1 35.36 431.10   L 44.80 431.10   A 1.27 1.26 -90.0 0 0 46.06 429.83   L 46.06 420.52   A 0.74 0.74 0.0 0 1 46.80 419.78   L 56.16 419.78   A 1.45 1.45 0.0 0 0 57.61 418.33   L 57.61 408.54   A 0.54 0.54 0.0 0 0 57.07 408.00   L 47.57 408.00   A 1.51 1.51 0.0 0 0 46.06 409.51   L 46.06 418.82   A 0.76 0.75 -90.0 0 1 45.31 419.58   L 35.42 419.58   A 0.97 0.97 0.0 0 1 34.45 418.61   L 34.45 409.03   A 0.89 0.89 0.0 0 1 35.34 408.14   L 44.74 408.14   A 1.27 1.27 0.0 0 0 46.01 406.87   L 46.01 398.14   A 1.26 1.26 0.0 0 1 47.27 396.88   L 56.40 396.88   A 1.23 1.23 0.0 0 0 57.63 395.65   L 57.63 374.68   A 0.86 0.86 0.0 0 1 58.49 373.82   L 67.94 373.82   A 1.23 1.22 -90.0 0 0 69.16 372.59   L 69.16 363.22   A 0.96 0.95 -0.0 0 1 70.12 362.27   L 90.72 362.27   A 1.31 1.31 0.0 0 0 92.03 360.96   L 92.03 351.90   A 1.01 1.01 0.0 0 1 93.04 350.89   L 102.30 350.89   A 1.37 1.37 0.0 0 0 103.67 349.52   L 103.67 340.50   A 1.33 1.33 0.0 0 1 105.00 339.17   L 113.86 339.17   A 1.20 1.20 0.0 0 0 115.06 337.97   L 115.06 305.76   A 0.69 0.69 0.0 0 1 115.75 305.07   L 148.39 305.07   A 1.33 1.33 0.0 0 0 149.72 303.74   L 149.72 282.33   A 0.69 0.69 0.0 0 0 149.03 281.64   L 127.57 281.64   A 0.97 0.97 0.0 0 0 126.60 282.61   L 126.60 292.12   A 1.01 1.01 0.0 0 1 125.59 293.13   L 104.63 293.13   A 0.95 0.95 0.0 0 0 103.68 294.08   L 103.68 303.37   A 1.35 1.35 0.0 0 1 102.33 304.72   L 93.14 304.72   A 1.12 1.12 0.0 0 0 92.02 305.84   L 92.02 314.85   A 1.28 1.27 -0.0 0 1 90.74 316.12   L 81.61 316.12   A 1.06 1.05 -90.0 0 0 80.56 317.18   L 80.56 326.67   A 1.07 1.07 0.0 0 1 79.49 327.74   L 69.78 327.74   A 0.78 0.78 0.0 0 0 69.00 328.52   L 69.00 338.14   A 0.99 0.99 0.0 0 1 68.01 339.13   L 58.47 339.13   A 1.06 1.06 0.0 0 0 57.41 340.19   L 57.41 360.64   A 1.30 1.30 0.0 0 1 56.11 361.94   L 47.32 361.94   A 1.33 1.32 90.0 0 0 46.00 363.27   L 46.00 383.53   A 1.38 1.38 0.0 0 1 44.62 384.91   L 35.68 384.91   A 1.04 1.03 90.0 0 0 34.65 385.95   L 34.65 395.12   A 1.33 1.32 -0.0 0 1 33.32 396.44   L 23.65 396.44   A 0.64 0.64 0.0 0 0 23.01 397.08   L 23.01 430.10   A 0.80 0.80 0.0 0 1 22.19 430.90   L 0.00 430.47   Z   M 299.03 317.05   A 1.03 1.03 0.0 0 0 298.00 316.02   L 276.90 316.02   A 1.03 1.03 0.0 0 0 275.87 317.05   L 275.87 361.13   A 1.03 1.03 0.0 0 0 276.90 362.16   L 298.00 362.16   A 1.03 1.03 0.0 0 0 299.03 361.13   L 299.03 317.05   Z   M 609.5289 351.2401   A 0.74 0.74 0.0 0 0 608.7902 350.4988   L 598.6702 350.4812   A 0.74 0.74 0.0 0 0 597.9289 351.2199   L 597.9111 361.3999   A 0.74 0.74 0.0 0 0 598.6498 362.1412   L 608.7698 362.1588   A 0.74 0.74 0.0 0 0 609.5111 361.4201   L 609.5289 351.2401   Z   M 621.3111 363.2921   A 1.14 1.14 0.0 0 0 620.1811 362.1422   L 610.5615 362.0582   A 1.14 1.14 0.0 0 0 609.4116 363.1883   L 609.3289 372.6679   A 1.14 1.14 0.0 0 0 610.4589 373.8178   L 620.0785 373.9018   A 1.14 1.14 0.0 0 0 621.2284 372.7717   L 621.3111 363.2921   Z"/>
<path xmlns="http://www.w3.org/2000/svg" fill="#000000" d="   M 736.00 328.11   L 736.00 338.19   Q 731.12 339.39 725.41 338.84   A 1.07 1.06 -87.3 0 1 724.45 337.78   L 724.45 328.80   A 1.06 1.06 0.0 0 1 725.55 327.74   L 736.00 328.11   Z"/>
<path xmlns="http://www.w3.org/2000/svg" fill="#000000" d="   M 691.16 431.01   L 700.33 431.01   A 1.09 1.09 0.0 0 1 701.42 432.10   L 701.42 452.76   A 1.09 1.09 0.0 0 1 700.33 453.85   L 656.36 453.85   A 1.09 1.09 0.0 0 1 655.27 452.76   L 655.27 443.93   A 1.09 1.09 0.0 0 1 656.36 442.84   L 677.27 442.84   A 1.09 1.09 0.0 0 0 678.36 441.75   L 678.36 420.68   A 1.09 1.09 0.0 0 1 679.45 419.59   L 688.98 419.59   A 1.09 1.09 0.0 0 1 690.07 420.68   L 690.07 429.92   A 1.09 1.09 0.0 0 0 691.16 431.01   Z"/>
<path xmlns="http://www.w3.org/2000/svg" fill="#000000" d="   M 540.47 464.81   L 540.47 454.97   A 0.96 0.96 0.0 0 1 541.43 454.01   L 562.45 454.01   A 0.96 0.96 0.0 0 0 563.41 453.05   L 563.41 443.74   A 0.96 0.96 0.0 0 1 564.37 442.78   L 620.02 442.78   A 0.96 0.96 0.0 0 1 620.98 443.74   L 620.98 464.53   A 0.96 0.96 0.0 0 1 620.02 465.49   L 541.48 465.49   A 0.96 0.96 0.0 0 0 540.52 466.45   L 540.52 475.86   A 0.96 0.96 0.0 0 1 539.56 476.82   L 518.43 476.82   A 0.96 0.96 0.0 0 1 517.47 475.86   L 517.47 466.73   A 0.96 0.96 0.0 0 1 518.43 465.77   L 539.51 465.77   A 0.96 0.96 0.0 0 0 540.47 464.81   Z"/>
<rect xmlns="http://www.w3.org/2000/svg" fill="#000000" x="-5.85" y="-5.67" transform="translate(51.75,471.32) rotate(-0.1)" width="11.70" height="11.34" rx="1.04"/>
<path xmlns="http://www.w3.org/2000/svg" fill="#000000" d="   M 459.92 487.53   L 459.92 478.14   A 1.21 1.21 0.0 0 1 461.13 476.93   L 470.20 476.93   A 1.21 1.21 0.0 0 1 471.41 478.14   L 471.41 487.57   A 1.21 1.21 0.0 0 0 472.62 488.78   L 481.77 488.78   A 1.21 1.21 0.0 0 1 482.98 489.99   L 482.98 510.40   A 1.21 1.21 0.0 0 1 481.77 511.61   L 472.67 511.61   A 1.21 1.21 0.0 0 1 471.46 510.40   L 471.46 500.93   A 1.21 1.21 0.0 0 0 470.25 499.72   L 461.21 499.72   A 1.21 1.21 0.0 0 0 460.00 500.93   L 460.00 510.36   A 1.21 1.21 0.0 0 1 458.79 511.57   L 449.62 511.57   A 1.21 1.21 0.0 0 1 448.41 510.36   L 448.41 501.05   A 1.21 1.21 0.0 0 0 447.20 499.84   L 438.11 499.84   A 1.21 1.21 0.0 0 1 436.90 498.63   L 436.90 489.95   A 1.21 1.21 0.0 0 1 438.11 488.74   L 458.71 488.74   A 1.21 1.21 0.0 0 0 459.92 487.53   Z"/>
<path xmlns="http://www.w3.org/2000/svg" fill="#000000" d="   M 506.26 488.76   Q 505.81 489.20 505.83 489.74   Q 506.00 494.35 506.00 499.00   A 1.07 1.06 -0.0 0 1 504.93 500.06   L 495.25 500.06   A 0.85 0.85 0.0 0 1 494.40 499.20   Q 494.50 490.07 494.42 478.51   Q 494.42 477.57 494.76 477.23   Q 495.10 476.89 496.04 476.90   Q 507.60 477.00 516.73 476.92   A 0.85 0.85 0.0 0 1 517.59 477.78   L 517.56 487.46   A 1.07 1.06 -89.9 0 1 516.50 488.52   Q 511.85 488.51 507.25 488.33   Q 506.71 488.31 506.26 488.76   Z"/>
<path xmlns="http://www.w3.org/2000/svg" fill="#000000" d="   M 161.03 521.78   L 161.03 512.47   A 1.02 1.02 0.0 0 0 160.01 511.45   L 127.63 511.45   A 1.02 1.02 0.0 0 1 126.61 510.43   L 126.61 500.81   A 1.02 1.02 0.0 0 0 125.59 499.79   L 104.65 499.79   A 1.02 1.02 0.0 0 1 103.63 498.77   L 103.63 489.52   A 1.02 1.02 0.0 0 0 102.61 488.50   L 81.37 488.50   A 1.02 1.02 0.0 0 1 80.35 487.48   L 80.35 478.03   A 1.02 1.02 0.0 0 1 81.37 477.01   L 113.93 477.01   A 1.02 1.02 0.0 0 1 114.95 478.03   L 114.95 487.78   A 1.02 1.02 0.0 0 0 115.97 488.80   L 136.90 488.80   A 1.02 1.02 0.0 0 1 137.92 489.82   L 137.92 498.92   A 1.02 1.02 0.0 0 0 138.94 499.94   L 159.99 499.94   A 1.02 1.02 0.0 0 1 161.01 500.96   L 161.01 510.64   A 1.02 1.02 0.0 0 0 162.03 511.66   L 217.49 511.66   A 1.02 1.02 0.0 0 1 218.51 512.68   L 218.51 521.93   A 1.02 1.02 0.0 0 0 219.53 522.95   L 229.09 522.95   A 1.02 1.02 0.0 0 1 230.11 523.97   L 230.11 533.38   A 1.02 1.02 0.0 0 1 229.09 534.40   L 208.07 534.40   A 1.02 1.02 0.0 0 1 207.05 533.38   L 207.05 523.82   A 1.02 1.02 0.0 0 0 206.03 522.80   L 162.05 522.80   A 1.02 1.02 0.0 0 1 161.03 521.78   Z"/>
<rect xmlns="http://www.w3.org/2000/svg" fill="#000000" x="390.90" y="499.93" width="34.52" height="11.46" rx="0.86"/>
<path xmlns="http://www.w3.org/2000/svg" fill="#000000" d="   M 506.28 522.60   Q 505.94 522.25 505.95 521.32   Q 506.03 509.87 505.93 500.82   A 0.84 0.84 0.0 0 1 506.77 499.97   L 516.36 499.98   A 1.06 1.05 0.0 0 1 517.42 501.03   Q 517.42 505.63 517.25 510.20   Q 517.23 510.73 517.68 511.18   Q 518.12 511.62 518.66 511.60   Q 523.22 511.42 527.83 511.41   A 1.06 1.05 89.9 0 1 528.88 512.47   L 528.90 522.06   A 0.84 0.84 0.0 0 1 528.05 522.90   Q 519.00 522.82 507.55 522.92   Q 506.62 522.93 506.28 522.60   Z"/>
<path xmlns="http://www.w3.org/2000/svg" fill="#000000" d="   M 309.47 534.36   L 288.57 534.36   A 1.03 1.03 0.0 0 0 287.54 535.39   L 287.54 544.82   A 1.03 1.03 0.0 0 1 286.51 545.85   L 277.01 545.85   A 1.03 1.03 0.0 0 1 275.98 544.82   L 275.98 535.43   A 1.03 1.03 0.0 0 0 274.95 534.40   L 242.40 534.40   A 1.03 1.03 0.0 0 1 241.37 533.37   L 241.37 523.95   A 1.03 1.03 0.0 0 1 242.40 522.92   L 332.47 522.92   A 1.03 1.03 0.0 0 0 333.50 521.89   L 333.50 512.61   A 1.03 1.03 0.0 0 1 334.53 511.58   L 355.58 511.58   A 1.03 1.03 0.0 0 1 356.61 512.61   L 356.61 521.77   A 1.03 1.03 0.0 0 1 355.58 522.80   L 334.59 522.80   A 1.03 1.03 0.0 0 0 333.56 523.83   L 333.56 533.53   A 1.03 1.03 0.0 0 1 332.53 534.56   L 322.98 534.56   A 1.03 1.03 0.0 0 0 321.95 535.59   L 321.95 544.84   A 1.03 1.03 0.0 0 1 320.92 545.87   L 311.53 545.87   A 1.03 1.03 0.0 0 1 310.50 544.84   L 310.50 535.39   A 1.03 1.03 0.0 0 0 309.47 534.36   Z"/>
<path xmlns="http://www.w3.org/2000/svg" fill="#000000" d="   M 552.35 522.64   Q 552.71 523.00 553.50 522.98   Q 559.80 522.89 562.39 522.89   A 1.11 1.11 0.0 0 1 563.50 524.00   L 563.50 532.86   A 1.83 1.82 -88.9 0 1 561.61 534.69   Q 549.40 534.28 541.88 534.65   Q 541.56 534.67 541.32 534.49   Q 540.97 534.24 540.86 534.13   Q 540.75 534.02 540.50 533.67   Q 540.32 533.43 540.34 533.11   Q 540.71 525.59 540.30 513.38   A 1.83 1.82 -1.1 0 1 542.13 511.49   L 550.99 511.49   A 1.11 1.11 0.0 0 1 552.10 512.60   Q 552.10 515.19 552.01 521.49   Q 551.99 522.28 552.35 522.64   Z"/>
</g></g></g></g></svg>