<svg xmlns="http://www.w3.org/2000/svg" direction="ltr" width="551" height="372" viewBox="-1718.2217049568399 2730.732956984816 551 372" stroke-linecap="round" stroke-linejoin="round" data-color-mode="light" class="tl-container tl-theme__force-sRGB tl-theme__light" style="background-color: transparent;"><defs/><g transform="matrix(1, 0, 0, 1, -1718.2217, 2730.733)" opacity="1"><g data-lovart-layer-name="SVG 2"><g transform="scale(1, 1)"><g>
<path xmlns="http://www.w3.org/2000/svg" fill="#000000" d="   M 283.33 87.60   Q 302.43 89.42 320.04 94.50   C 373.14 109.79 420.83 142.43 458.09 183.40   Q 460.15 185.68 460.50 188.09   Q 461.62 196.08 460.49 203.14   C 460.22 204.86 458.04 206.98 456.72 208.48   C 402.37 270.28 323.10 311.36 239.09 302.65   C 194.20 297.99 152.40 280.18 115.97 253.52   Q 86.39 231.87 64.34 205.65   Q 62.60 203.59 62.68 201.27   Q 62.98 192.23 62.94 188.51   C 62.92 186.87 63.68 185.44 64.86 184.14   Q 90.01 156.11 121.07 134.33   C 152.28 112.44 188.77 95.42 225.94 89.47   Q 243.75 86.62 258.00 86.29   Q 267.26 86.07 283.33 87.60   Z   M 223.04 119.02   A 0.29 0.29 0.0 0 0 222.85 118.47   Q 193.09 125.09 166.06 139.58   Q 125.29 161.42 92.90 194.65   A 1.19 1.18 45.5 0 0 92.89 196.29   C 121.49 226.54 157.29 251.30 196.34 264.85   Q 210.90 269.91 222.34 272.06   A 0.36 0.36 0.0 0 0 222.66 271.45   Q 221.98 270.80 220.67 270.09   C 185.39 250.97 167.85 209.14 179.81 170.39   Q 189.42 139.24 217.95 121.76   Q 220.58 120.14 223.04 119.02   Z   M 299.94 272.18   Q 301.60 272.14 303.69 271.65   Q 346.16 261.58 382.46 236.93   Q 408.80 219.03 430.72 196.14   A 0.82 0.81 -45.3 0 0 430.72 195.01   Q 395.92 159.01 351.45 136.62   Q 327.90 124.76 303.49 119.28   Q 301.66 118.87 300.65 118.79   A 0.07 0.06 -27.4 0 0 300.61 118.91   Q 305.39 121.50 310.15 124.84   Q 337.31 143.84 344.87 175.39   C 346.66 182.88 346.88 189.18 346.93 197.26   C 346.98 204.68 345.86 212.65 343.70 219.57   Q 332.86 254.32 299.83 271.76   A 0.22 0.22 0.0 0 0 299.94 272.18   Z"/>
</g></g></g></g></svg>